<svg xmlns="http://www.w3.org/2000/svg" viewBox="0 0 276 270">
  <path id="phone"
        fill="#fff"
        d="M 227.00,182.00
           C 230.54,182.01 235.74,181.85 238.69,184.09
             242.01,186.61 241.15,191.49 237.77,193.55
             235.06,195.20 231.08,195.00 228.00,195.00
             228.00,195.00 85.00,195.00 85.00,195.00
             81.32,194.99 77.20,195.32 74.31,192.57
             71.52,189.91 70.76,182.82 70.00,179.00
             70.00,179.00 63.60,147.00 63.60,147.00
             63.60,147.00 44.65,58.00 44.65,58.00
             44.65,58.00 40.80,40.00 40.80,40.00
             40.28,37.45 39.87,33.59 37.57,32.02
             35.75,30.78 32.17,31.00 30.00,31.00
             30.00,31.00 10.00,31.00 10.00,31.00
             7.57,30.98 4.43,31.18 2.52,29.40
             -0.36,26.70 0.57,21.59 5.05,19.74
             7.16,18.87 10.69,19.00 13.00,19.00
             13.00,19.00 38.00,19.00 38.00,19.00
             41.09,19.01 45.15,18.70 47.70,20.74
             51.27,23.59 52.83,36.27 53.80,41.00
             54.35,43.68 54.81,47.37 57.30,48.98
             59.21,50.21 62.76,50.00 65.00,50.00
             65.00,50.00 262.00,50.00 262.00,50.00
             266.57,50.01 273.27,49.57 274.94,55.05
             275.99,58.51 271.49,75.51 270.37,80.00
             270.37,80.00 257.12,137.00 257.12,137.00
             255.88,142.21 254.61,153.18 249.89,155.83
             247.43,157.21 243.77,157.00 241.00,157.00
             241.00,157.00 78.00,157.00 78.00,157.00
             78.00,157.00 83.00,182.00 83.00,182.00
             83.00,182.00 227.00,182.00 227.00,182.00 Z
           M 59.00,63.00
           C 59.00,63.00 66.20,100.00 66.20,100.00
             66.20,100.00 76.00,145.00 76.00,145.00
             76.00,145.00 111.00,144.00 111.00,144.00
             111.00,144.00 178.00,144.00 178.00,144.00
             178.00,144.00 218.00,144.00 218.00,144.00
             218.00,144.00 242.00,145.00 242.00,145.00
             242.00,145.00 248.37,122.00 248.37,122.00
             248.37,122.00 262.00,63.00 262.00,63.00
             262.00,63.00 59.00,63.00 59.00,63.00 Z
           M 122.00,216.38
           C 146.31,228.53 141.53,263.68 115.00,269.33
             96.46,273.28 81.58,258.02 82.01,240.00
             82.32,227.48 91.34,217.98 103.00,214.53
             109.23,213.51 116.25,213.50 122.00,216.38 Z
           M 216.00,216.38
           C 240.29,228.52 235.49,263.68 209.00,269.33
             196.26,272.05 182.08,264.22 177.56,252.00
             176.08,248.01 175.91,244.20 176.01,240.00
             176.32,227.48 185.34,217.98 197.00,214.53
             203.23,213.51 210.25,213.50 216.00,216.38 Z
           M 108.00,256.96
           C 128.57,258.10 130.51,233.32 116.00,227.23
             112.79,225.87 110.35,225.99 107.00,226.33
             87.63,231.15 91.78,256.05 108.00,256.96 Z
           M 202.00,256.96
           C 204.85,257.11 208.41,256.96 211.00,255.69
             219.79,251.38 222.13,238.37 215.61,231.21
             211.65,226.86 206.59,225.76 201.00,226.33
             181.85,231.10 185.48,256.04 202.00,256.96 Z" />
</svg>
