<svg xmlns="http://www.w3.org/2000/svg"
     viewBox="0 0 268 206">
  <path fill="#fff"
        d="M 267.00,0.00
           C 267.00,0.00 267.00,206.00 267.00,206.00
             267.00,206.00 1.00,206.00 1.00,206.00
             1.00,206.00 1.00,0.00 1.00,0.00
             1.00,0.00 267.00,0.00 267.00,0.00 Z
           M 16.00,16.00
           C 16.00,16.00 16.00,34.00 16.00,34.00
             16.00,36.07 15.89,39.08 16.60,41.00
             18.36,45.73 31.54,55.21 36.00,58.92
             36.00,58.92 99.00,110.80 99.00,110.80
             99.00,110.80 124.00,131.42 124.00,131.42
             126.32,133.32 131.01,137.88 134.00,137.88
             137.09,137.88 142.54,132.61 145.00,130.61
             145.00,130.61 170.00,110.08 170.00,110.08
             170.00,110.08 231.00,59.80 231.00,59.80
             235.10,56.49 249.03,45.79 250.98,41.99
             252.19,39.62 251.99,36.60 252.00,34.00
             252.00,34.00 252.00,16.00 252.00,16.00
             252.00,16.00 16.00,16.00 16.00,16.00 Z
           M 16.00,76.00
           C 16.00,76.00 16.00,99.00 16.00,99.00
             16.00,99.00 16.00,179.00 16.00,179.00
             16.00,179.00 34.00,162.04 34.00,162.04
             34.00,162.04 64.00,133.00 64.00,133.00
             64.00,133.00 81.00,117.00 81.00,117.00
             81.00,117.00 81.00,115.00 81.00,115.00
             81.00,115.00 17.00,63.00 17.00,63.00
             17.00,63.00 16.00,76.00 16.00,76.00 Z
           M 236.00,75.20
           C 236.00,75.20 204.00,101.58 204.00,101.58
             200.92,104.10 189.20,112.32 189.20,116.01
             189.20,118.24 191.59,120.50 193.02,122.00
             193.02,122.00 204.00,133.00 204.00,133.00
             204.00,133.00 222.00,150.96 222.00,150.96
             222.00,150.96 232.00,160.01 232.00,160.01
             237.90,165.78 245.61,174.43 252.00,179.00
             252.00,179.00 252.00,63.00 252.00,63.00
             246.08,66.16 241.20,70.99 236.00,75.20 Z
           M 53.00,165.00
           C 45.48,172.52 33.75,181.98 28.00,190.00
             28.00,190.00 240.00,190.00 240.00,190.00
             233.31,180.65 223.16,173.16 215.00,165.00
             204.97,154.98 184.38,133.40 174.00,126.00
             174.00,126.00 145.00,150.20 145.00,150.20
             145.00,150.20 134.00,157.41 134.00,157.41
             134.00,157.41 122.00,149.25 122.00,149.25
             122.00,149.25 94.00,126.00 94.00,126.00
             84.20,133.02 62.56,155.44 53.00,165.00 Z" />
</svg>
