<svg xmlns="http://www.w3.org/2000/svg"
  viewBox="0 0 276 270">
  <path fill="#fff"
        d="M 176.00,8.67
           C 221.91,24.10 256.37,60.54 269.71,107.00
             272.21,115.73 274.89,128.99 275.00,138.00
             275.00,138.00 275.00,143.00 275.00,143.00
             274.99,147.30 275.17,153.80 269.01,153.63
             267.37,153.58 265.80,152.82 264.74,151.57
             262.72,149.21 262.25,134.16 261.72,130.00
             260.04,116.89 256.19,104.00 250.69,92.00
             234.62,56.90 202.89,29.71 166.00,18.72
             155.55,15.61 144.81,14.20 134.00,13.01
             134.00,13.01 128.00,13.01 128.00,13.01
             121.24,11.78 120.40,5.36 126.11,1.74
             138.38,-1.36 163.86,4.59 176.00,8.67 Z
           M 65.96,33.39
           C 69.49,36.27 74.44,43.17 77.42,47.00
             77.42,47.00 88.87,62.00 88.87,62.00
             95.24,70.49 104.12,80.48 101.47,92.00
             98.35,105.62 80.79,109.94 80.04,127.00
             79.30,143.95 93.06,155.06 104.00,166.00
             114.94,176.94 126.05,190.70 143.00,189.96
             164.45,189.02 166.51,160.69 191.00,169.88
             196.48,171.94 201.33,176.12 206.00,179.63
             206.00,179.63 221.00,191.12 221.00,191.12
             230.29,198.20 242.71,205.44 241.47,219.00
             240.58,228.83 233.57,235.46 227.00,242.00
             213.03,255.90 191.26,268.76 171.00,269.00
             171.00,269.00 163.00,269.00 163.00,269.00
             140.14,268.73 115.62,251.34 99.00,237.00
             99.00,237.00 58.00,197.00 58.00,197.00
             36.75,175.75 10.47,150.14 2.89,120.00
             0.59,110.85 0.90,106.26 1.00,97.00
             1.24,76.64 14.10,56.91 28.00,43.00
             35.47,35.52 40.12,30.26 51.00,28.53
             56.56,28.40 61.59,29.81 65.96,33.39 Z
           M 34.58,54.00
           C 23.16,67.31 13.21,81.75 13.00,100.00
             12.67,129.30 33.11,152.81 51.91,173.00
             70.85,193.33 96.11,219.64 118.00,236.35
             133.19,247.94 150.45,257.22 170.00,257.00
             188.92,256.78 203.31,246.20 217.00,234.42
             221.72,230.36 230.46,222.05 228.48,215.04
             227.33,211.01 221.27,206.97 218.00,204.42
             218.00,204.42 190.00,183.33 190.00,183.33
             178.94,176.65 175.91,185.05 168.00,191.54
             160.23,197.90 149.36,203.60 139.00,202.82
             120.59,201.42 110.10,189.10 98.00,177.00
             98.00,177.00 78.32,157.00 78.32,157.00
             65.10,141.13 63.39,123.18 75.22,106.00
             78.53,101.20 88.11,92.71 89.08,89.00
             90.29,84.36 85.70,78.46 83.13,75.00
             83.13,75.00 65.58,52.00 65.58,52.00
             62.12,47.56 59.45,42.96 53.99,41.03
             45.94,41.14 39.47,48.29 34.58,54.00 Z
           M 156.00,42.63
           C 186.58,50.45 213.42,72.23 226.69,101.00
             232.71,114.03 235.04,124.90 236.72,139.00
             237.24,143.39 238.00,151.29 232.89,153.24
             228.60,154.88 225.94,151.87 225.06,148.00
             225.06,148.00 223.56,134.00 223.56,134.00
             222.17,125.09 219.78,117.24 216.14,109.00
             205.06,83.93 182.27,63.63 156.00,55.72
             151.08,54.24 143.07,52.44 138.00,52.09
             134.42,51.84 129.30,52.45 126.11,50.99
             119.87,48.15 122.02,42.56 127.02,39.74
             133.68,38.12 149.08,40.86 156.00,42.63 Z" />
</svg>
