<?xml version="1.0" encoding="UTF-8" standalone="no"?>
<!DOCTYPE svg PUBLIC "-//W3C//DTD SVG 20010904//EN"
              "http://www.w3.org/TR/2001/REC-SVG-20010904/DTD/svg10.dtd">

<svg xmlns="http://www.w3.org/2000/svg"
     viewBox="0 0 476 354">
  <path id="Selection"
        fill="#febd00" stroke="black" stroke-width="0"
        d="M 42.00,195.58
           C 1.85,164.40 -11.21,105.19 12.48,60.00
             27.34,31.66 52.73,11.05 84.00,3.65
             97.36,0.49 104.54,0.85 118.00,1.00
             127.12,1.11 136.39,3.46 145.00,6.33
             187.64,20.55 218.47,61.82 219.00,107.00
             219.19,123.66 216.92,138.65 210.14,154.00
             202.44,171.43 183.33,195.06 171.37,211.00
             171.37,211.00 106.13,299.00 106.13,299.00
             106.13,299.00 77.87,337.00 77.87,337.00
             69.64,347.98 68.70,353.98 54.00,354.00
             54.00,354.00 21.00,354.00 21.00,354.00
             14.22,353.91 7.87,351.79 7.11,344.00
             6.42,336.94 11.78,329.35 14.69,323.00
             14.69,323.00 37.78,275.00 37.78,275.00
             37.78,275.00 59.26,231.00 59.26,231.00
             59.26,231.00 69.00,211.00 69.00,211.00
             59.97,208.43 49.40,201.32 42.00,195.58 Z
           M 298.00,195.58
           C 257.85,164.40 244.79,105.19 268.48,60.00
             283.34,31.66 308.73,11.05 340.00,3.65
             353.36,0.49 360.54,0.85 374.00,1.00
             380.76,1.08 387.47,2.49 394.00,4.13
             431.89,13.64 462.36,44.13 471.87,82.00
             473.51,88.54 474.92,95.24 475.00,102.00
             475.25,123.41 473.80,137.13 464.69,157.00
             457.91,171.81 435.16,200.61 424.37,215.00
             424.37,215.00 362.87,298.00 362.87,298.00
             362.87,298.00 333.87,337.00 333.87,337.00
             325.64,347.98 324.70,353.98 310.00,354.00
             310.00,354.00 277.00,354.00 277.00,354.00
             270.22,353.91 263.87,351.79 263.11,344.00
             262.42,336.94 267.78,329.35 270.69,323.00
             270.69,323.00 293.78,275.00 293.78,275.00
             293.78,275.00 315.26,231.00 315.26,231.00
             315.26,231.00 325.00,211.00 325.00,211.00
             315.97,208.43 305.40,201.32 298.00,195.58 Z" />
</svg>
