<?xml version="1.0" standalone="no"?>
<!DOCTYPE svg PUBLIC "-//W3C//DTD SVG 20010904//EN"
 "http://www.w3.org/TR/2001/REC-SVG-20010904/DTD/svg10.dtd">
<svg version="1.0" xmlns="http://www.w3.org/2000/svg"
 width="350.000000pt" height="350.000000pt" viewBox="0 0 350.000000 350.000000"
 preserveAspectRatio="xMidYMid meet">
<metadata>
Created by potrace 1.11, written by Peter Selinger 2001-2013
</metadata>
<g transform="translate(0.000000,350.000000) scale(0.100000,-0.100000)"
fill="#000000" stroke="none">
<path d="M2480 2370 c-42 -10 -55 -55 -51 -175 0 -11 1 -76 1 -145 1 -71 6
-130 12 -137 9 -11 57 -19 59 -10 0 1 2 36 5 77 2 41 9 100 14 130 24 138 31
209 21 228 -16 30 -34 39 -61 32z"/>
<path d="M920 2351 c-15 -29 -13 -50 19 -184 16 -67 32 -149 36 -181 9 -77 13
-86 40 -86 44 0 49 19 36 158 -7 70 -12 145 -11 167 1 46 -24 125 -43 137 -23
15 -66 9 -77 -11z"/>
<path d="M2820 2353 c-31 -12 -50 -37 -66 -92 -8 -31 -22 -63 -29 -71 -15 -17
-35 -84 -35 -118 0 -13 -9 -35 -20 -49 -12 -16 -18 -35 -15 -49 3 -13 7 -35
10 -49 3 -16 12 -25 24 -25 34 0 57 40 111 195 17 49 37 96 45 105 20 23 45
89 45 120 0 35 -28 48 -70 33z"/>
<path d="M573 2309 c-16 -16 0 -70 40 -130 20 -30 58 -102 85 -160 55 -118 96
-164 119 -133 19 27 16 94 -5 118 -11 12 -24 47 -31 78 -7 31 -19 62 -28 70
-9 7 -29 42 -45 78 -16 36 -36 71 -45 78 -21 15 -75 16 -90 1z"/>
<path d="M2998 2170 c-14 -11 -36 -45 -48 -77 -43 -109 -84 -188 -112 -215
-49 -46 -30 -106 26 -80 26 12 111 120 135 172 9 19 26 49 37 65 54 75 61 133
18 149 -24 9 -29 8 -56 -14z"/>
<path d="M419 2127 c-13 -7 -25 -22 -27 -34 -3 -21 36 -95 57 -108 6 -3 17
-21 26 -39 21 -44 132 -169 160 -180 56 -22 77 36 28 74 -33 24 -65 74 -124
188 -49 94 -79 119 -120 99z"/>
<path d="M1479 1927 c-53 -35 -81 -92 -75 -150 3 -26 0 -59 -6 -72 -8 -19 -8
-28 2 -40 35 -42 85 0 153 130 42 79 45 102 17 133 -26 28 -49 28 -91 -1z"/>
<path d="M1944 1900 c-29 -11 -46 -61 -31 -87 60 -103 82 -133 116 -167 37
-36 42 -39 67 -27 22 10 25 16 19 39 -4 15 -10 54 -14 87 -8 72 -30 108 -86
140 -23 14 -44 25 -46 24 -2 0 -14 -4 -25 -9z"/>
<path d="M3138 1874 c-15 -8 -39 -33 -52 -57 -14 -23 -38 -50 -53 -59 -40 -23
-121 -105 -128 -129 -23 -71 78 -22 212 101 94 88 114 119 93 145 -15 19 -37
18 -72 -1z"/>
<path d="M1005 1858 c-11 -6 -35 -24 -53 -40 -18 -15 -37 -28 -43 -28 -33 0
-85 -41 -141 -110 -35 -43 -68 -86 -74 -97 -10 -14 -14 -16 -25 -5 -7 6 -23
12 -35 12 -12 0 -29 11 -37 24 -9 13 -44 42 -79 66 -35 23 -84 64 -110 92 -42
45 -50 49 -85 46 -30 -2 -39 -7 -41 -25 -3 -23 2 -30 95 -107 78 -66 136 -104
182 -118 50 -16 56 -43 11 -50 -22 -3 -30 0 -30 10 0 12 -9 13 -45 9 -45 -7
-46 -6 -43 21 3 24 0 27 -27 27 -26 0 -30 -4 -33 -32 -3 -26 -8 -32 -30 -35
-21 -2 -27 -8 -27 -28 0 -21 4 -25 28 -23 l27 2 0 -75 c0 -90 10 -114 48 -114
47 0 142 70 142 104 0 3 -8 10 -19 15 -15 8 -25 4 -54 -24 -20 -19 -41 -35
-47 -35 -6 0 -10 28 -10 69 l0 69 41 7 c34 6 44 4 51 -10 7 -12 17 -15 34 -11
24 6 24 6 24 -73 0 -116 30 -137 120 -85 28 16 46 21 48 14 2 -6 15 -24 28
-39 13 -16 24 -33 24 -38 0 -15 52 -59 96 -81 l41 -21 143 50 c78 27 155 58
170 69 20 14 44 20 82 20 30 0 70 8 93 19 135 62 136 221 2 210 l-42 -4 0 38
c0 39 14 48 35 22 17 -20 59 -19 67 2 4 10 -3 24 -21 40 -37 32 -107 32 -160
-1 -43 -26 -43 -26 -108 42 -18 17 -42 32 -54 32 -43 0 -52 9 -48 48 4 27 -3
50 -23 87 -29 53 -52 64 -88 43z m45 -288 c19 -38 19 -40 2 -40 -10 0 -36 -9
-57 -20 -23 -12 -41 -16 -43 -10 -2 5 -12 20 -21 32 -18 21 -17 22 33 48 28
15 54 28 58 29 4 0 17 -17 28 -39z m-347 -127 c15 -20 27 -44 27 -52 0 -14
-46 -51 -64 -51 -3 0 -6 32 -6 70 0 39 3 70 8 70 4 -1 19 -17 35 -37z m347 17
c0 -11 -50 -34 -57 -26 -2 2 3 11 12 20 18 18 45 21 45 6z m430 -35 c0 -42
-73 -95 -129 -95 -20 0 -20 0 1 48 25 59 42 72 90 72 34 0 38 -3 38 -25z"/>
<path d="M2420 1838 c-24 -40 -34 -89 -27 -127 7 -31 -5 -41 -48 -41 -14 0
-29 -11 -40 -27 -10 -16 -34 -43 -53 -62 l-35 -35 -31 18 c-30 17 -31 17 -48
-4 -10 -12 -18 -30 -18 -40 0 -17 -2 -17 -29 -4 -85 43 -197 -73 -176 -182 7
-40 29 -54 85 -54 61 0 130 43 130 81 0 13 -18 29 -34 29 -2 0 -17 -14 -35
-31 -38 -36 -84 -38 -89 -3 -3 19 6 24 68 39 45 11 75 24 85 37 13 20 14 19
30 -18 9 -22 15 -55 14 -74 -4 -46 7 -63 35 -56 14 3 25 -1 33 -12 18 -29 72
-49 222 -86 l143 -35 38 24 c49 31 90 75 90 96 0 9 7 22 15 29 11 9 19 8 37
-4 53 -37 165 -3 195 59 16 33 16 39 2 63 -13 23 -21 27 -59 26 -25 0 -60 -4
-78 -9 -27 -6 -31 -5 -26 8 8 23 66 39 108 31 31 -5 36 -4 36 13 0 27 -19 43
-53 43 -23 0 -27 3 -22 19 4 13 -3 25 -22 40 -15 12 -68 61 -118 110 -74 73
-97 91 -130 96 -22 4 -49 15 -60 25 -26 23 -80 50 -100 50 -8 0 -24 -15 -35
-32z m133 -252 c63 -25 62 -39 -5 -49 -35 -5 -38 -4 -38 19 0 14 -7 27 -15 30
-8 4 -12 10 -9 15 7 11 -1 13 67 -15z m2 -132 c-8 -20 -15 -39 -15 -41 0 -3
-7 0 -15 7 -8 7 -15 23 -15 36 0 21 5 24 53 33 4 0 0 -15 -8 -35z m-485 7 c0
-9 -11 -14 -62 -27 l-23 -5 24 20 c24 22 61 28 61 12z m855 -72 c21 -33 -87
-78 -110 -45 -7 9 -17 16 -24 16 -6 0 -11 5 -11 10 0 6 15 10 33 11 17 1 43 5
57 9 36 12 48 11 55 -1z"/>
<path d="M25 1621 c-7 -13 -10 -330 -2 -337 3 -4 46 -3 96 1 78 6 91 10 97 27
10 33 -15 50 -56 38 -19 -6 -45 -10 -58 -10 -23 0 -23 0 -21 134 0 74 -2 139
-6 145 -8 13 -42 14 -50 2z"/>
<path d="M256 1604 c-3 -9 -6 -27 -6 -40 0 -35 47 -34 56 1 3 14 4 32 0 40 -7
20 -42 19 -50 -1z"/>
<path d="M1826 1604 c-3 -9 -6 -27 -6 -40 0 -35 47 -34 56 1 3 14 4 32 0 40
-7 20 -42 19 -50 -1z"/>
<path d="M3057 1584 c-4 -4 -7 -20 -7 -35 0 -23 -5 -28 -27 -31 -22 -2 -28 -8
-28 -28 0 -21 4 -25 28 -23 l27 2 0 -74 c0 -93 18 -121 72 -111 41 7 118 70
118 96 0 32 -35 29 -70 -6 -18 -19 -38 -34 -44 -34 -7 0 -11 25 -11 68 l0 67
44 11 c48 11 60 26 41 48 -8 11 -19 12 -43 5 -18 -5 -33 -9 -34 -9 -1 0 -3 12
-5 28 -2 20 -9 28 -28 30 -14 2 -29 0 -33 -4z"/>
<path d="M1655 1511 c-71 -33 -112 -129 -81 -189 20 -39 62 -54 115 -40 69 18
119 98 66 106 -13 2 -29 -8 -43 -28 -28 -38 -68 -41 -83 -6 -16 34 16 97 55
111 22 7 30 7 33 -2 6 -18 50 -16 57 2 9 24 -3 43 -36 54 -39 14 -35 14 -83
-8z"/>
<path d="M3321 1512 c-48 -24 -75 -64 -67 -96 8 -33 44 -42 109 -27 58 13 74
5 52 -27 -21 -30 -84 -41 -101 -18 -18 25 -48 16 -52 -15 -2 -19 3 -28 23 -37
67 -31 170 7 194 70 12 34 12 40 -4 64 -15 24 -21 26 -64 21 -25 -4 -58 -9
-74 -13 -22 -5 -26 -3 -21 9 8 22 68 40 104 32 22 -5 32 -3 36 9 17 44 -69 62
-135 28z"/>
<path d="M249 1511 c0 -6 -1 -57 -1 -113 -1 -83 2 -104 15 -112 11 -7 20 -6
31 4 14 11 16 31 14 119 l-3 106 -27 3 c-16 2 -28 -1 -29 -7z"/>
<path d="M1819 1518 c0 -2 -1 -54 -2 -115 -2 -119 2 -131 45 -117 17 5 18 15
16 117 l-3 112 -27 3 c-16 2 -28 2 -29 0z"/>
</g>
</svg>
